<svg xmlns="http://www.w3.org/2000/svg" data-name="Layer 1" viewBox="0 0 31.8 32"><path fill="var(--bolt-theme-icon, currentColor)" fill-rule="evenodd" d="M14.9 2.6v9.9a1 1 0 002 0V2.6l11.7 5.8-12.7 6.4L3.2 8.5zm2 13.9L29.8 10v11.8L20 17a1 1 0 10-.9 1.7l9.5 4.7-11.7 6zm-3.5.8a.9.9 0 00-1.3-.4L2 21.9V10.1l12.9 6.4v12.8L3.2 23.5l9.8-4.9a.9.9 0 00.4-1.3zm18.4-8.8a.4.4 0 00-.1-.3v-.1a.2.2 0 00-.2-.2v-.1l-.2-.2-15-7.5-.4-.1-.4.1-15 7.5a.2.2 0 00-.2.2v.1L.1 8v.1l-.1.3V24l.1.2v.1l.2.1 14.9 7.5a2.3 2.3 0 00.7.1l.4-.1 14.9-7.5.2-.1v-.1a.3.3 0 00.1-.2V8.5z" data-name="path-1"/></svg>