<svg xmlns="http://www.w3.org/2000/svg" viewBox="0 0 24 24"><g fill="var(--bolt-theme-icon, currentColor)" fill-rule="evenodd"><path d="M21 3.3v12.4c0 .2-.1.3-.3.3H3.3a.3.3 0 01-.3-.3V3.3c0-.2.1-.3.3-.3h17.4c.2 0 .3.1.3.3M23 1H1a1 1 0 000 2v13c0 1 1 2 2.1 2h6.1l-2 3.5a1 1 0 00.4 1.4c.4.2 1 0 1.3-.4l2.7-4.5h.8l2.7 4.5c.2.3.6.5.9.5l.5-.1a1 1 0 00.4-1.4L14.8 18h6c1.2 0 2.2-1 2.2-2V3a1 1 0 000-2M19 5a1 1 0 00-.7.3l-4.4 5.3-4.1-3.3h-.1a1 1 0 00-1.4 0l-4 4a1 1 0 001.3 1.4l3.5-3.4 4.2 3.4c.2.2.4.3.7.3.3 0 .5-.1.8-.4l4.9-5.9A1 1 0 0019 5"/></g></svg>