<svg xmlns="http://www.w3.org/2000/svg" viewBox="0 0 198 182"><g fill="none" fill-rule="evenodd"><path fill="#FFCC4C" d="M72.8 49h52.5c1 0 1.7.8 1.7 1.8v31.5c0 1-.8 1.7-1.8 1.7H72.7c-1 0-1.7-.8-1.7-1.7V50.8c0-1 .8-1.8 1.8-1.8z"/><path fill="#F63" d="M1 78.8l16.7-29c.3-.5 1-.8 1.5-.8h36c1 0 1.8.8 1.8 1.8v31.5c0 1-.8 1.7-1.8 1.7H4.1a3.5 3.5 0 01-3-5.2z"/><path fill="#E1E2EB" d="M141 82.3V50.8c0-1 .8-1.8 1.7-1.8h36c.7 0 1.3.3 1.6.9l16.6 28.9a3.5 3.5 0 01-3 5.2h-51.2c-1 0-1.7-.8-1.7-1.7z"/><path fill="#F63" d="M85 1.8v31.4c0 1-.8 1.8-1.8 1.8H29.4a1.8 1.8 0 01-1.5-2.6L42.5 7a14 14 0 0112-7h28.8c1 0 1.7.8 1.7 1.8z"/><path fill="#FFCC4C" d="M100.8 0h42.6c5 0 9.6 2.7 12.1 7l14.7 25.4a1.7 1.7 0 01-1.5 2.6h-68c-1 0-1.7-.8-1.7-1.7V1.8c0-1 .8-1.8 1.8-1.8z"/><path fill="#6C79D9" d="M42.5 175l-14.7-25.4a1.8 1.8 0 011.5-2.6h68c1 0 1.7.8 1.7 1.8v31.4c0 1-.8 1.8-1.8 1.8H54.6a14 14 0 01-12.1-7z"/><path fill="#12B3B3" d="M114.7 147h54a1.8 1.8 0 011.5 2.6L155.5 175a14 14 0 01-12 7h-28.8c-1 0-1.7-.8-1.7-1.7v-31.5c0-1 .8-1.8 1.7-1.8z"/><path fill="#6C79D9" d="M71 99.8v31.5c0 1-.8 1.7-1.8 1.7h-50c-.6 0-1.2-.3-1.5-.9L1.1 103.2A3.5 3.5 0 014 98h65.1c1 0 1.8.8 1.8 1.7z"/><path fill="#12B3B3" d="M86.7 98H194a3.5 3.5 0 013 5.2l-16.6 29c-.3.5-1 .8-1.5.8h-92c-1 0-1.8-.8-1.8-1.8V99.8c0-1 .8-1.8 1.7-1.8z"/></g></svg>