<svg xmlns="http://www.w3.org/2000/svg" data-name="Layer 1" viewBox="0 0 32 32"><path fill="var(--bolt-theme-icon, currentColor)" d="M16.4 21.6a4.5 4.5 0 10-4.5-4.5 4.5 4.5 0 004.5 4.5zm0-7.2a2.7 2.7 0 11-2.7 2.7 2.7 2.7 0 012.7-2.7zM19.5 2.8a3.1 3.1 0 00-6.2 0 14.7 14.7 0 106.2 0zm-3-1.1a1.7 1.7 0 11-1.8 1.7 1.7 1.7 0 011.7-1.7zm0 28.3a12.8 12.8 0 01-3-25.4 3.1 3.1 0 005.8 0A12.8 12.8 0 0116.4 30zM16.4 7.9a9.2 9.2 0 00-7.9 14 2.3 2.3 0 00.4 2.7 2.3 2.3 0 002.7.4 9.2 9.2 0 104.8-17.1zm-4.3 13.5a2.3 2.3 0 00-2.1-.6 7.4 7.4 0 112.7 2.7 2.3 2.3 0 00-.6-2.1zm-2.3.8a1.1 1.1 0 011.5 0 1 1 0 010 1.6 1.1 1.1 0 01-1.6 0 1 1 0 010-1.6z"/></svg>