<svg xmlns="http://www.w3.org/2000/svg" data-name="Layer 1" viewBox="0 0 86.1 75.5"><path fill="var(--bolt-theme-icon, currentColor)" d="M85.1 52.5a13 13 0 00-7.2-6.8 2.4 2.4 0 00.4-1.1v-1.4a32.4 32.4 0 00-1.5-9 35.8 35.8 0 00-17.5-21 17.2 17.2 0 00-2.6-1.3 2 2 0 00-1.3 0 12.3 12.3 0 00-4.9-9.2A13.4 13.4 0 0040.2.1a12.7 12.7 0 00-11 12.3 3 3 0 00-1.4.3A36.6 36.6 0 0019 19 34.9 34.9 0 008 44.5v2.8a12.3 12.3 0 00-5.2 19.3A13.6 13.6 0 0019.5 70a13.8 13.8 0 002-1.4 2.6 2.6 0 001.4 1.7 38.8 38.8 0 0020.2 5.2 36.5 36.5 0 0011.8-2 38.8 38.8 0 009-4.3 2.5 2.5 0 001.2-1.6 13 13 0 009.9 2.3c6.1-.9 11.2-6.1 11-12.4a11.6 11.6 0 00-.9-5zM40.3 5A8.5 8.5 0 0149.6 9 7.8 7.8 0 0144 20.3l-1.5.2a8.2 8.2 0 01-8.5-6.7 8 8 0 016.1-8.9zM21.1 61a7.8 7.8 0 01-5.9 5.6 14 14 0 01-1.8.3 8.8 8.8 0 01-7-3.3 7.6 7.6 0 01.8-10.2 8.6 8.6 0 0111.8 0 7.3 7.3 0 012 7.6zm23.2 10A34.7 34.7 0 0132 69a32.4 32.4 0 01-6.9-3.1 2.5 2.5 0 00-.9-.3A12.1 12.1 0 0025.7 55a13.3 13.3 0 00-12.5-8.8h-.3a24.5 24.5 0 01.4-7.5 30.8 30.8 0 0115-20.8l1.6-1a12.4 12.4 0 001.3 2.4 13.5 13.5 0 0020.3 2.2 12.5 12.5 0 003.4-5.3l1 .5a32.3 32.3 0 0110.8 8.6 29.6 29.6 0 016.5 15l.4 4.5a13.7 13.7 0 00-8.3 2.4 12.2 12.2 0 00-2.9 17.6 3.4 3.4 0 00-1.1.5 34.1 34.1 0 01-17 5.5zm30.3-5.7l-1.7.2a8 8 0 01-8.2-6.9 7.4 7.4 0 013-7.3 8.5 8.5 0 0112.3 2.3C83 58 80.1 64 74.7 65z"/></svg>