<svg xmlns="http://www.w3.org/2000/svg" viewBox="0 0 24 24"><g fill="none" fill-rule="evenodd"><path /><path fill="var(--bolt-theme-icon, currentColor)" d="M19 20c0 .6-.4 1-1 1H6a1 1 0 01-1-1V6c0-.5.5-1 1-1h1c0 1.1.9 2 2 2h6a2 2 0 002-2h1c.6 0 1 .5 1 1v14zM9 3h6v2H9V3zm9 0h-1a2 2 0 00-2-2H9a2 2 0 00-2 2H6a3 3 0 00-3 3v14a3 3 0 003 3h12a3 3 0 003-3V6a3 3 0 00-3-3zM13 13v-2c0-.6-.4-1-1-1a1 1 0 00-1 1v2H9a1 1 0 00-1 1c0 .6.4 1 1 1h2v2c0 .6.4 1 1 1s1-.4 1-1v-2h2c.6 0 1-.4 1-1s-.4-1-1-1h-2z"/></g></svg>