<svg xmlns="http://www.w3.org/2000/svg" viewBox="0 0 46 48"><g fill-rule="evenodd"><path fill="var(--bolt-theme-icon, currentColor)" d="M0 21C0 27.8 3.6 33.7 9 37.6v9.6l8.4-5.8c1.8.4 3.7.6 5.6.6 12.6 0 22.8-9.4 22.8-21 0-11.5-10.2-21-22.8-21C10.3 0 .1 9.6.1 21zm12.4 14.7A17.1 17.1 0 013.6 21c0-9.6 8.6-17.4 19.3-17.4 10.7 0 19.3 7.8 19.3 17.4 0 9.7-8.6 17.5-19.3 17.5a21 21 0 01-6-1l-4.5 2.7v-4.5z"/><g fill="var(--bolt-theme-icon, currentColor)"><path d="M12.3 20.8c0-1.5 1-2.5 2.5-2.5 1.4 0 2.4 1 2.4 2.5s-1 2.6-2.5 2.6c-1.4 0-2.4-1.1-2.4-2.6M20.8 20.8c0-1.5 1-2.5 2.4-2.5s2.4 1 2.4 2.5-1 2.6-2.4 2.6c-1.5 0-2.4-1.1-2.4-2.6M29.2 20.8c0-1.5 1-2.5 2.4-2.5 1.5 0 2.5 1 2.5 2.5s-1 2.6-2.5 2.6c-1.4 0-2.4-1.1-2.4-2.6"/></g></g></svg>