<svg xmlns="http://www.w3.org/2000/svg" viewBox="0 0 24 24"><g fill="none" fill-rule="evenodd"><path /><g fill="var(--bolt-theme-icon, currentColor)"><path d="M10.1 4.7l1.9-.2c2.6 0 5 1.2 7.4 3.6 1.2 1.4 2 2.7 2.5 3.4L20 14a1 1 0 000 1.4l.7.2c.3 0 .6-.1.8-.4a20 20 0 002.3-3.3 1 1 0 000-1s-1.1-2.1-3-4.2A12.2 12.2 0 0012 2.5c-.8 0-1.6 0-2.3.3A1 1 0 008.9 4c.2.5.7.8 1.2.7zM12 18.5c-2.6 0-5-1.2-7.4-3.7a18.7 18.7 0 01-2.5-3.3c1-1.8 2.4-3.3 3.9-4.6l2.5 2.5A4 4 0 0014 15l2.4 2.4a9 9 0 01-4.4 1.2zm-2-7.6l2.6 2.6A2 2 0 0110 11zm13.2 10.4l-4.5-4.6L2.1.3A1 1 0 00.8.3a1 1 0 000 1.4l3.8 3.8A19.7 19.7 0 000 11a1 1 0 000 1s1 2 3 4.2c2.7 2.8 5.8 4.3 9 4.3 2 0 4-.6 5.7-1.8l4 4a1 1 0 001.4 0c.4-.4.4-1 0-1.4z"/></g></g></svg>