<svg xmlns="http://www.w3.org/2000/svg" viewBox="0 0 24 24"><g fill="none" fill-rule="evenodd"><path /><path fill="var(--bolt-theme-icon, currentColor)" d="M19.4 12.4C17 14.8 14.6 16 12 16c-2.6 0-5-1.2-7.4-3.6A18.8 18.8 0 012.1 9c.4-.7 1.3-2 2.5-3.4C7 3.2 9.4 2 12 2c2.6 0 5 1.2 7.4 3.6A19 19 0 0121.9 9c-.4.7-1.3 2-2.5 3.4m4.5-3.8c0-.1-1.1-2.2-3-4.3A12.2 12.2 0 0012 0C8.9 0 5.8 1.5 3.1 4.3c-2 2.1-3 4.2-3 4.3a1 1 0 000 .9s1 2.1 3 4.2C5.8 16.5 9 18 12 18c3.1 0 6.2-1.5 8.9-4.3 1.9-2.1 3-4.2 3-4.3a1 1 0 000-.8" mask="url(#mask-2)" transform="translate(0 3)"/><path fill="var(--bolt-theme-icon, currentColor)" d="M12 14a2 2 0 01-2-2c0-1.1.9-2 2-2a2 2 0 012 2 2 2 0 01-2 2m0-6a4 4 0 100 8 4 4 0 000-8"/></g></svg>