<svg xmlns="http://www.w3.org/2000/svg" viewBox="0 0 24 32"><path fill="var(--bolt-theme-icon, currentColor)" fill-rule="evenodd" d="M23.3 8L16 .7c-.4-.5-1-.7-1.7-.7H3a3 3 0 00-3 3v26a3 3 0 003 3h18a3 3 0 003-3V9.7c0-.7-.2-1.3-.7-1.7zm-.5 21c0 1-.8 1.8-1.8 1.8H3c-1 0-1.8-.8-1.8-1.8V3C1.2 2 2 1.2 3 1.2h11.3c.3 0 .6.1.8.3l7.3 7.3c.2.2.3.5.3.8V29zm-3.7-11.1c-.5-.3-1.7-.8-4.3-.7l-.8-.8-2-2.4c.7-1.9.8-2.8.8-3.6 0-2-1.2-2.4-1.7-2.4-.6 0-1.6.5-1.7 2.1 0 1.3.1 2.5 1.1 4l-.9 2.1a20 20 0 01-1 2.1c-2.4.8-3.3 1.8-3.8 2.3-1.2 1.2-.8 2.2-.6 2.6s.7.8 1.4.8l.7-.1c.3-.1 1.3-.5 3.2-4.4l2-.5 2.6-.4c1.8 1.9 2.4 2.2 3.2 2.4l.8.1c1.1 0 1.6-.6 1.7-1 .2-.5.3-1.5-.7-2.2zM5.8 22.6h-.2l-.1-.1-.1-.1s-.1-.3.5-.9c.3-.3.8-.8 1.8-1.3-1.2 2.1-1.8 2.3-1.9 2.4zm5.3-13.2c.1.1.4.4.4 1.1 0 .4 0 .9-.3 1.9-.4-.9-.4-1.6-.4-2.2 0-.5.1-.8.3-.8zm.3 8.2l-.9.2v-.1l.4-.9.5-1.3 1.6 1.8-1.6.3zm7.2 1.9l-.4.1h-.4c-.4-.1-.7-.2-1.6-1.1 1.5.1 2.1.4 2.2.5.2.2.3.3.2.5z" clip-rule="evenodd"/></svg>