<svg xmlns="http://www.w3.org/2000/svg" viewBox="0 0 24 24"><g fill="none" fill-rule="evenodd"><path /><path fill="var(--bolt-theme-icon, currentColor)" d="M22 3v-.4l-.2-.3h-.1l-.3-.2L21 2h-6a1 1 0 00-1 1c0 .6.4 1 1 1h3.5l-5.3 5.3A1 1 0 0014 11c.3 0 .5-.1.7-.3L20 5.4V9c0 .5.5 1 1 1 .6 0 1-.5 1-1V3z"/><path fill="var(--bolt-theme-icon, currentColor)" d="M7.3 1.3L2 6.6V3c0-.5-.4-1-1-1a1 1 0 00-1 1v6a1 1 0 000 .4l.2.3h.1l.3.2.3.1h6c.6 0 1-.4 1-1s-.4-1-1-1H3.5l5.3-5.3c.4-.4.4-1 0-1.4a1 1 0 00-1.4 0z" mask="url(#mask-2)" transform="translate(2 12)"/></g></svg>