<svg xmlns="http://www.w3.org/2000/svg" viewBox="0 0 24 28"><path fill="var(--bolt-theme-icon, currentColor)" d="M12 2a12 12 0 013.8 23.4c-.6.1-.8-.3-.8-.6v-3.3c0-1.1-.4-1.8-.8-2.2 2.6-.3 5.5-1.3 5.5-6 0-1.2-.5-2.3-1.3-3.1.1-.4.6-1.6-.1-3.2-1-.3-3.3 1.2-3.3 1.2a11.3 11.3 0 00-6 0S6.7 6.7 5.7 7a4.3 4.3 0 00-.1 3.2c-.8.8-1.3 1.9-1.3 3.2 0 4.6 2.8 5.6 5.5 5.9-.3.3-.6.8-.8 1.6-.6.3-2.4.9-3.4-1-.7-1.1-1.9-1.2-1.9-1.2-1.2 0 0 .7 0 .7.7.4 1.3 1.8 1.3 1.8.7 2.1 4 1.4 4 1.4v2.2c0 .3-.2.7-.8.6A12 12 0 0112 2zM4.5 19.2V19h-.3l.1.3h.2zm.5.6v-.3h-.3v.2H5zm.5.7v-.3c0-.1-.2-.2-.3-.1v.3c0 .2.2.1.3 0zm.7.6l-.1-.3h-.3v.3c.2 0 .3.1.4 0zm.8.4s0-.2-.2-.2h-.3l.2.3H7zm1 0h-.5c0 .2.1.3.3.3l.2-.2zm1 0c0-.2-.2-.2-.3-.2-.2 0-.3.1-.3.2l.3.2c.1 0 .3-.2.2-.3z"/></svg>