<svg xmlns="http://www.w3.org/2000/svg" viewBox="0 0 24 24"><g fill="none" fill-rule="evenodd"><path /><path fill="var(--bolt-theme-icon, currentColor)" d="M12 1a11 11 0 019.5 16.5 11 11 0 01-15 4 11 11 0 01-4-15A11 11 0 0112 1zm4 7.5l-.2.1-.2.1a2.5 2.5 0 00.2-.3l.3-.2.7-.2c.4 0 .6 0 .8.2l.1-.2.2-.2h.2l.2-.2v-.3h-.2v-.4l-.2.1h-.2-.1l-.2-.1-.1-.3-.1-.2-.1-.2-.2-.1a1.6 1.6 0 010-.2H16.5a2.8 2.8 0 00-.2.2h-.1a.4.4 0 01-.3.1l-.1-.1h-.2v-.2-.2l-.1-.1-.2-.2h-.2l-.5-.2h-.5V6l-.1.2.2.2c.1.1.2.2.1.3 0 .1 0 .2-.2.3a1 1 0 00-.2.1v.5h.1v.2a.6.6 0 01-.2 0h-.3a1 1 0 01-.2-.4L13 7h-.4l-.6-.4h-.8v-.2c0-.2-.2-.2-.3-.2v-.3l.1-.1c0-.2 0-.3.2-.4a2.7 2.7 0 00.2-.3c.3 0 .6 0 .7-.2l.2-.3.1-.2.2-.1h.3l.2.2s.2 0 .2-.2l-.1-.3s.1 0 0-.2l-.1-.2-.4.1V4c-.2 0-.3.2-.3.2h-.3v-.2c0-.2-.1-.2-.2-.2l-.2.2c0-.1 0-.2-.2-.2a1 1 0 00-.3-.2c.2 0 .1-.2-.1-.3l-.3-.1h-.3V3.4l.2.1a2.1 2.1 0 00.2.1l.2.2H11a13.4 13.4 0 00-.2.2v.4l-.2-.3V4s-.1.1-.4 0H10h-.2a1 1 0 01-.3.1L9.3 4v-.3-.2H9c-.5 0-1 .3-1.4.5H8l.2-.1h.1l.6-.2.4.3h-.5l-.3.2.1.2-.2-.1-.2-.2h-.5A9 9 0 004.2 7l.2.2.1.2h.2v.3l.7.4.3.3s0 .2-.2.2l-.1-.1h-.1v.2l.1.2-.1.2v1.4c.1.2.2.3.3.2 0 0 0 .3.3.7H6a6.4 6.4 0 00.4.3l.2.2.1.3c0 .2.1.3.2.3 0 .1 0 .2.2.3l.1.4.2.2.2.2V14h.2c0-.2-.1-.5-.4-.9a11.8 11.8 0 01-.3-.6v-.2a2.2 2.2 0 01.2.1l.1.3.2.3a19.6 19.6 0 00.6.7v.2l.3.1.2.3.1.4.1.3.1.2.2.2h.2l.2.2.3.1.3.2H10.8c.2 0 .3 0 .4.2l.3.3c.4.2.6.2.8.1v.1l.2.3a14 14 0 00.2.3l.2.2.3.2v-.1s0 .2.2.3l.2.1c.2 0 .2-.2.2-.4-.3.1-.5 0-.7-.3a1 1 0 01-.1-.3v-.1l.2-.1v-.2-.2L13 16l-.2-.2-.2.1H12v-.2-.3l.2-.2V15l.1-.2v-.1H12c-.2 0-.3 0-.4.3V15.3h-.2s-.2.1-.4 0h-.3a1 1 0 01-.3-.4 1.3 1.3 0 01-.1-.9v-.4-.3-.1l.2-.2h.2v-.1-.1h1v-.2-.2c0 .3.2.3.4.2h.2l.3.1.2.1h.2l.1.3.3.6h.2a1.4 1.4 0 000-.5v-.5l-.3-.1v-.3l.2-.3h.2l.2-.1.2-.1c.2-.2.2-.4.2-.5l.1-.1-.1-.2h-.1v-.2l.1-.2.1-.1h.3c.1 0 .1-.1 0-.2l.3-.2.3-.1h.1v-.2-.2l.3-.1h.2l.2-.2c.2 0 .3-.1.5-.3l-.1-.2v-.2h-.3H16.6c.2-.2.2-.3 0-.3s-.4 0-.7.2zM13.5 21c2-.3 3.6-1.2 5-2.7h-.2l-.1-.1-.4-.1v-.2l-.1-.1a7.7 7.7 0 00-.5-.3 4.8 4.8 0 00-.2-.2H17 16.7v.1h-.1l-.5-.2-.2-.1-.1-.1h-.2-.1l-.1.3v.2-.3-.2l-.2-.1h-.1a2.8 2.8 0 00-.3.3 1.4 1.4 0 00-.3.2v.1l-.1.2-.2-.1h-.1v1c.2.3.1.5 0 .6l-.5.6c0 .2 0 .4.2.4l-.1.3-.1.3v.2z"/></g></svg>