<svg xmlns="http://www.w3.org/2000/svg" viewBox="0 0 35 50"><g fill="var(--bolt-theme-icon, currentColor)" fill-rule="evenodd"><path d="M6.9 31.1l12.3 3.6a10.7 10.7 0 014.1-4.2c4-1.7 6.9-4.9 8-8.9 1.2-3.5.8-7.3-1-10.5A14.4 14.4 0 004 13.7c-1.2 4-.5 8.2 1.9 11.8 1 2 1.1 4 1 5.6M19.5 38L4.8 33.6c-.7-.2-1.2-1-1-1.7a8 8 0 00-.5-4.9 16.6 16.6 0 01-2.1-14.2A17.4 17.4 0 0133 9.7c2.1 4 2.6 8.5 1.3 12.8A17 17 0 0124.6 33a8.2 8.2 0 00-3.3 4 1.5 1.5 0 01-1.8.8M3.1 37.8c-.8-.2-1.3-1-1-1.7 0-.4.3-.7.7-1 .3-.1.7-.2 1.1 0l15 4c.8.3 1.3 1 1 1.8 0 .4-.3.7-.7 1a1.5 1.5 0 01-1.1 0L3 38zM0 41c.3-.7 1.2-1.2 2-1l15 4.2c.3.1.6.3.8.7.2.3.3.7.1 1-.2.6-.7 1-1.3 1H16L1 43c-.3-.2-.6-.4-.8-.8-.2-.3-.3-.7-.1-1M5.2 45.6l6.2 1.6c.4.1.7.4.9.7.2.4.2.7.1 1-.2.6-.7 1-1.3 1h-.6l-6.2-1.6c-.4-.1-.7-.4-1-.7-.1-.4-.2-.7 0-1.1.2-.7 1-1.2 1.9-1M15.1 22.4l2.3.7L22 10 18.4 9l-3.3 13.4zm1.9 5c.2-.6.1-1.1 0-1.5-.3-.5-.8-.8-1.4-1-.6-.2-1.1-.1-1.6.1a2 2 0 00-.9 1.3c-.2.6-.1 1.2 0 1.6.3.5.7.8 1.3 1a2 2 0 001.6-.1c.5-.3.8-.7 1-1.3z"/></g></svg>