<svg xmlns="http://www.w3.org/2000/svg" data-name="Layer 1" viewBox="0 0 32 28.7"><path fill="var(--bolt-theme-icon, currentColor)" fill-rule="evenodd" d="M.9.4H8a1 1 0 011 1v26a1 1 0 01-.9 1H.9a1 1 0 01-.9-1v-26a1 1 0 01.9-1zM2 26.5h5v-2H2zm0-22h5v-2H2zm0 18h5v-16H2zm8.9-22H18a1 1 0 011 1v26a1 1 0 01-.9 1H11a1 1 0 01-.9-1v-26a.8.8 0 01.8-1zm1.1 26h5v-2h-5zm0-22h5v-2h-5zm0 18h5v-16h-5zM19.8 1l7-1a1 1 0 011.1.7L32 26.5a1 1 0 01-.8 1.1l-7 1.1a1 1 0 01-1.1-.8L19 2.3a1 1 0 01.8-1.2zm5.1 25.6l4.9-.8-.3-2-4.9.8zM21.5 5l4.9-.8-.3-2-4.9.8zm2.8 17.8l4.9-.8-2.5-15.8-4.9.8z" data-name="path-1"/></svg>