<svg xmlns="http://www.w3.org/2000/svg" data-name="Layer 1" viewBox="0 0 32 32"><path fill="var(--bolt-theme-icon, currentColor)" d="M31 2a1 1 0 00-.6-.6S21.2-1.4 15 4.9a40.8 40.8 0 00-4.6 5.3h-.1s-4.1-.7-6.5 1.7a14.3 14.3 0 00-3.1 6.2.9.9 0 00.4 1 .9.9 0 001-.1 7.5 7.5 0 014.6-2.2 3.8 3.8 0 00-.2.4.9.9 0 00.2 1l7.5 7.4a.9.9 0 001 .2l.3-.1a7.7 7.7 0 01-2 4.5.9.9 0 00.5 1.5h.2a14.6 14.6 0 006.2-3.1c2.3-2.4 1.8-6.3 1.7-6.5a.9.9 0 000-.2 41.5 41.5 0 005.3-4.5C33.7 11.2 31 2 31 2zm-4.8 14.2c-3.4 3.4-9.8 7-11.2 7.8l-6.6-6.7A57 57 0 0116 6.1C21 1.3 27.6 2.5 29.4 2.9c.4 1.8 1.6 8.5-3.2 13.3zm-17-4.3L7.6 15a10.3 10.3 0 00-4.3 1A9.6 9.6 0 015 13.1 5.7 5.7 0 018.9 12zm10 15.4a9.6 9.6 0 01-2.9 1.8 10.5 10.5 0 001-4.3c1-.5 2.1-1.1 3.1-1.8a5.8 5.8 0 01-1.2 4.3zM22.8 5.8a3.7 3.7 0 102.6 6.4 3.7 3.7 0 00-2.6-6.3zM24 11a2 2 0 110-2.8 2 2 0 010 2.8zM5.2 22.6c-1 1-1.5 4.5-1.6 5.2a.9.9 0 00.2.7 1 1 0 00.7.3c.7-.1 4.2-.6 5.2-1.7a3.2 3.2 0 00-4.5-4.5zm3.3 3.3a8.2 8.2 0 01-3 1 8 8 0 011-3 1.4 1.4 0 011-.5 1.4 1.4 0 011 .4 1.4 1.4 0 010 2z"/></svg>