<svg xmlns="http://www.w3.org/2000/svg" viewBox="0 0 24 24"><g fill="none" fill-rule="evenodd"><path /><g fill="var(--bolt-theme-icon, currentColor)" fill-rule="nonzero"><path d="M24 4.5c0-.5-.4-1-1-1a1 1 0 00-1 1v3.7l-3-2.8a10 10 0 00-12.8-1 10 10 0 00-3.6 4.8 1 1 0 001.9.6 8 8 0 0113.2-3l2.8 2.7H17a1 1 0 00-1 1c0 .5.4 1 1 1H23.4l.3-.3.2-.4.1-.2V4.4zM20.8 14.6a1 1 0 00-1.3.6 8 8 0 01-13.1 3l-2.9-2.7H7c.6 0 1-.4 1-1s-.4-1-1-1H1a1 1 0 00-.4 0v.1l-.3.2-.2.3v6.3c0 .6.4 1 1 1 .5 0 1-.4 1-1v-3.6L5 19.6a10 10 0 0016.5-3.7c.1-.5-.2-1-.7-1.3z"/></g></g></svg>