<svg xmlns="http://www.w3.org/2000/svg" data-name="Layer 1" viewBox="0 0 26 32"><path fill="var(--bolt-theme-icon, currentColor)" fill-rule="evenodd" d="M17.9.4l3.4 4.2a1 1 0 01-.2 1.4 1.4 1.4 0 01-.6.2 1 1 0 01-.8-.4l-1.8-2.3A17.1 17.1 0 011 18.2a1 1 0 010-2A15.2 15.2 0 0016 3.3l-2.4 1.9a1 1 0 01-1.2-1.6L16.6.2a.1.1 0 00.1-.1l.2-.1h.5l.2.1a.1.1 0 01.1.1.2.2 0 01.2.2zM1 24.3a1 1 0 011 1V31a1 1 0 01-1 1 1 1 0 01-1-1v-5.7a1 1 0 011-1zm8-4.8a1 1 0 011 1V31a1 1 0 01-2 0V20.5a1 1 0 011-1zm8-3.5a1 1 0 011 1v14a1 1 0 01-2 0V17a1 1 0 011-1zm8-5.2a1 1 0 011 1V31a1 1 0 01-2 0V11.8a1 1 0 011-1z" data-name="path-1"/></svg>