<svg xmlns="http://www.w3.org/2000/svg" data-name="Layer 1" viewBox="0 0 32 32.2"><path fill="var(--bolt-theme-icon, currentColor)" fill-rule="evenodd" d="M25.4 24.5a1.1 1.1 0 00-1.2.6L23 28.6 20 23.4a11.6 11.6 0 005.7-4.3l3.4 6.2zM16 22.1a10 10 0 1110-10 10 10 0 01-10 10zm-6.9 6.5l-1.3-3.5a1 1 0 00-1.2-.6l-3.7.8 3.4-6.2a11.8 11.8 0 005.6 4.2zM32 26.3L27 17a11.8 11.8 0 001.1-5A12 12 0 0016 0 12.2 12.2 0 004 12.1a12.6 12.6 0 001.1 5.1l-5 9.2a1 1 0 00.1 1 1 1 0 001 .4l5-1.1L8 31.5a1.1 1.1 0 001 .7 1 1 0 001-.5l4-7.7a15 15 0 002.1.2 12.3 12.3 0 002-.2l4.2 7.7a1 1 0 001 .5 1 1 0 001-.7l1.6-4.8 5 1.1a1 1 0 001-.4 1 1 0 00.1-1.1z" data-name="path-1"/></svg>