<svg xmlns="http://www.w3.org/2000/svg" data-name="Layer 1" viewBox="0 0 28 32"><path fill="var(--bolt-theme-icon, currentColor)" fill-rule="evenodd" d="M10 6h8V4h-8zm16 2H2V3a1 1 0 011-1h22a1 1 0 011 1zm0 11v1H2V10h24zm-2 7a2 2 0 112-2 2 2 0 01-2 2zm-3.4 0H7.4a4.7 4.7 0 00.6-2 3.6 3.6 0 00-.6-2h13.1a4.7 4.7 0 00-.6 2 4.8 4.8 0 00.7 2zM4 26a2 2 0 112-2 2 2 0 01-2 2zM26 0H2a2 2 0 00-2 2v22a3.8 3.8 0 002 3.4V31a1 1 0 001 1 1 1 0 001-1v-3h20v3a1 1 0 002 0v-3.6a4 4 0 002-3.4V2a2 2 0 00-2-2z" data-name="Page-1"/></svg>