<svg xmlns="http://www.w3.org/2000/svg" data-name="Layer 1" viewBox="0 0 13.2 17.1"><g fill="var(--bolt-theme-icon, currentColor)" data-name="utility-icons/discussion/util-heart-copy-utility-icons/action/trashcan"><path d="M.6 4.4V5l.8 5.9.7 5.7a.5.5 0 00.1.4h8.6a.6.6 0 00.2-.4l.8-6.7.7-5.4a1.1 1.1 0 000-.2zM4 15c-.3 0-.5-.2-.5-.6l-.4-5.3-.2-2c0-.5.3-.8.6-.6a.5.5 0 01.4.4l.2 2.7.2 3 .2 1.8a.5.5 0 01-.5.6zm2.7 0a.4.4 0 01-.6 0 .6.6 0 01-.2-.6v-4V7a.5.5 0 01.5-.6c.3 0 .5.2.5.6v7.5a.6.6 0 01-.2.5zM10 8a302.7 302.7 0 01-.5 6.5.5.5 0 01-.5.5c-.3 0-.5-.3-.5-.6l.2-2.2.3-3L9 6.8a.5.5 0 01.6-.5.5.5 0 01.4.6L10 8zM12 1.7H9.7v-.3a1.4 1.4 0 00-1-1.3L8.3 0H4.9a1.4 1.4 0 00-1.2 1.2 2.8 2.8 0 000 .4H.9a1 1 0 00-.9.8v1.3h13.2v-1a1 1 0 00-1.1-1zm-3.5 0H4.8a.5.5 0 01.5-.7H8a.5.5 0 01.6.6z"/></g></svg>