<svg xmlns="http://www.w3.org/2000/svg" data-name="Layer 1" viewBox="0 0 32 32"><path fill="var(--bolt-theme-icon, currentColor)" d="M26.7 10a9 9 0 01-2.5.7A4.4 4.4 0 0026 8.3a8.5 8.5 0 01-2.8 1 4.4 4.4 0 00-7.6 3 4 4 0 00.1 1 12.4 12.4 0 01-9-4.5 4.5 4.5 0 00-.6 2.2A4.3 4.3 0 008 14.6a5.3 5.3 0 01-2.1-.5 4.5 4.5 0 003.6 4.3 3.7 3.7 0 01-1 .2 5.6 5.6 0 01-.9 0 4.4 4.4 0 004.1 3 8.8 8.8 0 01-5.4 1.8 9 9 0 01-1 0 12.5 12.5 0 0019.1-10.5 5.3 5.3 0 000-.6 8.5 8.5 0 002.2-2.3zM32 6v20a6 6 0 01-6 6H6a6 6 0 01-6-6V6a6 6 0 016-6h20a6 6 0 016 6z"/></svg>