<svg xmlns="http://www.w3.org/2000/svg" viewBox="0 0 24 24"><path fill="var(--bolt-theme-icon, currentColor)" d="M20 12c0-2.3-1-4.3-2.5-5.8l-.3-3.5a3.1 3.1 0 00-3-2.7H9.8a3.1 3.1 0 00-3 2.7l-.3 3.5a8 8 0 000 11.6l.3 3.5a3.1 3.1 0 003 2.7h4.3a3 3 0 003-2.7l.3-3.4A8 8 0 0020 12zM8.8 2.9c0-.5.5-.9 1-.9h4.4c.5 0 1 .4 1 .9l.2 1.8A9.8 9.8 0 0012 4c-1.2 0-2.3.3-3.3.7l.1-1.8zm6.4 18.2c0 .5-.5.9-1 .9H9.8c-.5 0-.9-.4-1-.9l-.2-1.8c1 .5 2.1.7 3.3.7 1.2 0 2.3-.3 3.3-.7v1.8zM12 18a6 6 0 01-6-6 6 6 0 012.1-4.6A6 6 0 0118 12a6 6 0 01-6 6zm1-6.4V9a1 1 0 00-2 0v3c0 .3.1.5.3.7l1.5 1.5c.2.2.5.3.7.3s.5-.1.7-.3c.4-.4.4-1 0-1.4L13 11.6z"/></svg>