<svg xmlns="http://www.w3.org/2000/svg" data-name="Layer 1" viewBox="0 0 64 64"><path fill="var(--bolt-theme-icon, currentColor)" fill-rule="evenodd" d="M32 16a15.7 15.7 0 018 2.1 16 16 0 015.9 5.9 16 16 0 010 16A16 16 0 0140 46a16 16 0 01-16 0A16 16 0 0118 40a16 16 0 010-16A16 16 0 0124 18a15.7 15.7 0 018-2.1zm5.7 10.8a1.1 1.1 0 00-.2.3.5.5 0 01-.3.1h.1l.1-.3a.5.5 0 01.1-.1 1.4 1.4 0 01.5-.3 5 5 0 011-.3 1 1 0 011 .2l.3-.2a1.2 1.2 0 01.3-.3 1.3 1.3 0 01.3 0 .5.5 0 00.3-.2v-.5a.4.4 0 01-.4-.1.8.8 0 01-.1-.5.4.4 0 01-.1.2l-.1-.2a.4.4 0 00-.3 0 .5.5 0 01-.2 0 .9.9 0 01-.3-.1.7.7 0 01-.1-.4l-.1-.3a.6.6 0 00-.2-.2.8.8 0 01-.2-.2v-.1L39 23a.8.8 0 00-.1 0 .2.2 0 00-.1-.1h-.2l-.1.3h-.1a.1.1 0 00-.1 0h-.1l-.1.1-.1.1a.4.4 0 01-.2 0h-.2c.2 0 .2 0 0-.2a.7.7 0 00-.3 0 .2.2 0 00.1-.3.5.5 0 00-.2-.3h.2a.4.4 0 00-.2-.1 1.7 1.7 0 00-.4-.2l-.3-.1a2.2 2.2 0 00-.7-.2 1.2 1.2 0 00-.7 0 .3.3 0 000 .2 1.7 1.7 0 000 .3.8.8 0 01.1.2.3.3 0 01-.1.3.4.4 0 00-.1.3s0 .2.2.3a.4.4 0 01.3.4.7.7 0 01-.4.3 2 2 0 00-.3.3.4.4 0 000 .4.8.8 0 00.2.3v.2h-.2a1 1 0 01-.1.2.4.4 0 01-.5-.1 1.3 1.3 0 01-.3-.6 1.1 1.1 0 00-.3-.6H33c0-.2-.4-.3-.9-.5a2.5 2.5 0 00-1.1 0v-.3c0-.2-.2-.3-.4-.3a1.3 1.3 0 000-.3v-.3a1 1 0 01.3-.5l.2-.2a1.5 1.5 0 00.2-.3 1.2 1.2 0 001-.3 1.7 1.7 0 00.2-.4 3.2 3.2 0 01.2-.3.5.5 0 01.3-.1.8.8 0 01.3 0 .7.7 0 00.3.2c.2 0 .3 0 .4-.2a.5.5 0 00-.2-.5c.2 0 .2 0 0-.3a.5.5 0 00-.1-.2.7.7 0 00-.6.1v.2l-.2.2a1.7 1.7 0 01-.3.4l-.3-.1c-.1-.1 0-.2-.2-.3s0-.3-.2-.3-.2.1-.3.3c0-.1 0-.2-.2-.3a1.4 1.4 0 00-.5-.2c.2-.1.2-.3-.2-.5a1 1 0 00-.4-.1.6.6 0 00-.4 0 .6.6 0 00-.1.3.2.2 0 000 .1l.3.2h.2l.2.1c.2.1.3.2.2.3h-.2l-.2.2a.3.3 0 00-.2 0 .4.4 0 000 .3v.3a1 1 0 01-.2-.3 1.1 1.1 0 00-.1-.4c.1.1 0 .2-.5.1H28.7a1.7 1.7 0 01-.4 0 .4.4 0 01-.3-.1.6.6 0 010-.4s0-.1.1 0a1.7 1.7 0 01-.2-.2 1.4 1.4 0 00-.2-.2 11.3 11.3 0 00-2 .8.5.5 0 00.2 0 1.8 1.8 0 00.3-.1l.3-.1c.5-.2.8-.2.9-.1v-.1l.5.5a1.2 1.2 0 00-.6 0c-.3 0-.5.1-.5.2a.5.5 0 01.1.4 2.5 2.5 0 01-.2-.2 1.7 1.7 0 00-.3-.2 1 1 0 00-.3-.1h-.5a13.2 13.2 0 00-4.9 4.6.6.6 0 00.3.1v.2a1.2 1.2 0 00.1.3l.3-.1a.3.3 0 010 .4 9.4 9.4 0 011 .6 2.8 2.8 0 01.4.4c0 .2 0 .3-.2.4a.8.8 0 00-.2-.2l-.2-.1a.5.5 0 000 .4c0 .2.1.3.2.2l-.2.4a4.2 4.2 0 000 .7 3.9 3.9 0 010 .5 1.3 1.3 0 00.1.7c.1.3.3.5.5.4q-.3 0 .4 1a1.5 1.5 0 00.2.1l.2.2.3.2a.8.8 0 01.2.2 1.5 1.5 0 01.2.5 1.1 1.1 0 00.3.5l.2.4a.8.8 0 01.2.4.8.8 0 00.3.3.7.7 0 01.3.3.7.7 0 010 .2 1 1 0 00.1.2h.2a2.5 2.5 0 00-.5-1.3L25 33a1.6 1.6 0 01-.1-.3 1 1 0 00-.1-.3h.1l.2.1h.2v.1a.4.4 0 000 .4 2.2 2.2 0 00.2.4l.4.4.2.3a2.5 2.5 0 01.3.4c.1.2.1.2 0 .2a.7.7 0 01.4.3 2 2 0 01.4.4 1.7 1.7 0 01.2.5 3.8 3.8 0 000 .5.7.7 0 00.2.3 1.1 1.1 0 00.3.2l.3.2.3.1a3.2 3.2 0 01.4.2 2.5 2.5 0 00.4.3 1 1 0 00.4 0 1.3 1.3 0 00.3 0h.2a.7.7 0 01.7.3 2.5 2.5 0 00.4.4 1.4 1.4 0 001.1.2v.2a1.4 1.4 0 00.2.3c0 .2.1.3.2.3l.1.2a1.9 1.9 0 00.4.3 1.7 1.7 0 01.3.3.3.3 0 00.2-.2l.1.5.4.2c.1 0 .3-.3.3-.7a.7.7 0 01-1-.4 1.4 1.4 0 01-.1-.3.8.8 0 010-.1.2.2 0 010-.2l.3-.1a.6.6 0 000-.3 2.2 2.2 0 01-.1-.3 1 1 0 00-.2-.4 3.4 3.4 0 01-.3-.3.3.3 0 01-.3.2.4.4 0 01-.3-.2.6.6 0 010 .1.5.5 0 000 .1 1.6 1.6 0 01-.4 0 1.5 1.5 0 000-.3 3 3 0 01.2-.5 1 1 0 010-.2 2.3 2.3 0 00.2-.3 1 1 0 00.1-.3.2.2 0 000-.2.6.6 0 00-.4 0 .6.6 0 00-.6.4v.2a1 1 0 01-.2.3.6.6 0 01-.1.1 1.3 1.3 0 01-.5 0 1.2 1.2 0 01-.5 0 1.3 1.3 0 01-.5-.7 2 2 0 01-.2-.8 3.4 3.4 0 010-.5l.1-.5a1.4 1.4 0 00-.1-.5 1.3 1.3 0 00.2-.2.9.9 0 01.2-.3h.2a.2.2 0 00.1 0v-.1l-.1-.1a1.1 1.1 0 00.5 0H32V33a.4.4 0 010-.3q0 .6.5.2a.7.7 0 00.4.1 1 1 0 01.2 0l.1.1.2.1a.6.6 0 00.2-.1 1.4 1.4 0 01.3.5c.1.5.3.8.4.9a.3.3 0 00.2 0l.1-.2a1.4 1.4 0 000-.3v-1a.4.4 0 01-.4-.2.4.4 0 010-.4 1.6 1.6 0 01.3-.4h.2l.3-.2a1.2 1.2 0 00.3-.2c.3-.2.4-.5.3-.7.1 0 .2 0 .2-.2l-.2-.2h-.1v-.3a.4.4 0 00.2-.2.3.3 0 01.1-.2.3.3 0 00.5 0 .2.2 0 000-.4.7.7 0 01.4-.2c.2 0 .3 0 .4-.2s.1 0 .1 0a.8.8 0 000-.2.4.4 0 010-.3.7.7 0 01.4-.2h.3l.3-.3a.7.7 0 00.7-.3q.2-.2-.2-.4a.1.1 0 000-.2 1.4 1.4 0 00-.3-.1.8.8 0 01.2 0h.2c.2-.2.2-.3-.1-.4a1.1 1.1 0 00-.9.3zm-3.4 18.3a12.9 12.9 0 007.3-4 .5.5 0 00-.2 0 .8.8 0 01-.3-.1 3.6 3.6 0 00-.5-.2.4.4 0 000-.2.6.6 0 00-.2-.2l-.3-.2-.2-.1-.1-.1-.2-.1-.1-.1h-.7a.3.3 0 00-.1.1 2.5 2.5 0 00-.8-.4.5.5 0 01-.2-.1l-.2-.2a.4.4 0 00-.2 0 .4.4 0 00-.3.1.4.4 0 000 .4v.2s-.2-.2 0-.3 0-.3 0-.4a.2.2 0 00-.3-.1.9.9 0 00-.2 0l-.3.3a1.6 1.6 0 01-.2 0 .9.9 0 00-.2.2.5.5 0 00-.1.2.8.8 0 00-.2.2 1 1 0 010 .2.4.4 0 00-.3 0L35 40a5.2 5.2 0 010 .7 6.2 6.2 0 00.2.8 1 1 0 01-.3 1 1.7 1.7 0 00-.6.8c0 .4 0 .5.3.6a1 1 0 01-.2.4.8.8 0 00-.1.5 1.5 1.5 0 000 .3z"/><circle cx="32" cy="32" r="30" fill="none" stroke="var(--bolt-theme-icon, currentColor)" stroke-miterlimit="10" stroke-width="4"/></svg>